<?xml version="1.0" encoding="UTF-8"?>
<svg version="1.1" xmlns="http://www.w3.org/2000/svg" width="945" height="945">
<path d="M0 0 C4.53961279 1.91141591 7.14880459 4.67405154 10.44921875 8.2734375 C12.37065799 10.29787441 14.28188035 11.90408106 16.5625 13.5 C17.5525 10.53 18.5425 7.56 19.5625 4.5 C23.68303819 6.56026909 27.13979554 8.53531288 29.875 12.3125 C31.04150552 16.02410847 31.32507671 19.97484659 29.5625 23.5 C28.2425 23.17 26.9225 22.84 25.5625 22.5 C30.38540536 26.94029492 35.19909326 31.30158361 40.4375 35.25 C43.66751615 37.70252554 46.22318928 40.14359766 48.5625 43.5 C48.7584375 42.943125 48.954375 42.38625 49.15625 41.8125 C51.71743257 35.27706862 55.35396865 31.13963836 60.5625 26.5 C63.5625 27.5 63.5625 27.5 65.25 30.875 C66.98162599 36.0235778 67.46124702 41.13202915 66.5625 46.5 C65.1665018 49.19375948 63.88961615 50.44992148 61.5625 52.5 C60.9025 52.5 60.2425 52.5 59.5625 52.5 C65.01716718 59.16474693 71.1200694 64.81481712 77.5625 70.5 C78.573125 70.005 79.58375 69.51 80.625 69 C85.05153796 67.14227624 88.86236408 66.60173696 93.53515625 68.15625 C100.71342377 71.3650324 106.04226536 77.17167151 110.5625 83.5 C110.5625 84.16 110.5625 84.82 110.5625 85.5 C106.6025 86.82 102.6425 88.14 98.5625 89.5 C101.31158147 92.67608777 101.31158147 92.67608777 104.875 93.6875 C108.88936323 95.30334432 110.62623414 97.83621391 113.04296875 101.32421875 C116.8847596 106.8251892 121.3070129 111.33811081 126.5 115.5625 C129.75831428 118.376751 130.46370127 118.98953991 131.3125 123.375 C130.5625 126.5 130.5625 126.5 127.5625 128.5 C122.26385678 128.50915137 119.30699827 124.90725863 115.75 121.4375 C114.8537793 120.58575195 114.8537793 120.58575195 113.93945312 119.71679688 C112.47212991 118.31990517 111.0161658 116.91109872 109.5625 115.5 C109.55885437 116.35777542 109.55520874 117.21555084 109.55145264 118.09931946 C109.51360705 126.17778062 109.45679391 134.25583666 109.37859726 142.33401203 C109.33906502 146.48725797 109.30690504 150.64029008 109.29150391 154.79370117 C109.27637471 158.80102034 109.24199704 162.80775186 109.19419098 166.8148098 C109.17933831 168.344585 109.17145676 169.87444408 109.17061615 171.40429115 C109.16825619 173.54531339 109.14126027 175.68469862 109.10839844 177.82543945 C109.09951599 179.04455521 109.09063354 180.26367096 109.08148193 181.51972961 C108.5625 184.5 108.5625 184.5 106.56646729 186.28947449 C105.90515808 186.68894791 105.24384888 187.08842133 104.5625 187.5 C103.87399171 189.5316566 103.87399171 189.5316566 103.8125 191.6875 C103.73 192.945625 103.6475 194.20375 103.5625 195.5 C104.201875 195.644375 104.84125 195.78875 105.5 195.9375 C107.5625 196.5 107.5625 196.5 108.5625 197.5 C108.875 199.875 108.875 199.875 108.5625 202.5 C107.923125 202.933125 107.28375 203.36625 106.625 203.8125 C104.13523186 205.84958302 104.17657064 206.5901826 103.8125 209.6875 C103.73 210.945625 103.6475 212.20375 103.5625 213.5 C104.201875 213.644375 104.84125 213.78875 105.5 213.9375 C107.5625 214.5 107.5625 214.5 108.5625 215.5 C108.6761793 216.92621845 108.72202684 218.35793916 108.73950195 219.78857422 C108.75233719 220.6997702 108.76517242 221.61096619 108.77839661 222.54977417 C108.78578354 223.54139557 108.79317047 224.53301697 108.80078125 225.5546875 C108.808853 226.5671756 108.81692474 227.5796637 108.82524109 228.62283325 C108.83909934 230.7698596 108.84981367 232.91690813 108.85766602 235.06396484 C108.87489144 238.3542636 108.91876386 241.64356121 108.96289062 244.93359375 C108.97301582 247.01561758 108.98153246 249.09764999 108.98828125 251.1796875 C109.00578934 252.16726044 109.02329742 253.15483337 109.04133606 254.17233276 C109.03694771 255.54858322 109.03694771 255.54858322 109.0324707 256.95263672 C109.03833694 257.76014374 109.04420319 258.56765076 109.05024719 259.39962769 C108.5625 261.5 108.5625 261.5 107.0586729 263.10788441 C103.49488975 265.09540622 100.11002161 264.91072979 96.13598633 264.8742218 C95.2778449 264.87819621 94.41970346 264.88217061 93.53555775 264.88626546 C90.65504793 264.89590333 87.77502743 264.88406131 84.89453125 264.87231445 C82.83149024 264.87474192 80.7684504 264.87846081 78.70541382 264.88337708 C73.0980603 264.89279579 67.49088103 264.88335233 61.88354111 264.87004495 C56.0210746 264.8587434 50.15861684 264.86283695 44.29614258 264.86479187 C34.45032905 264.86567526 24.60458432 264.85458512 14.75878906 264.83618164 C3.36847424 264.81501337 -8.02173977 264.81150389 -19.41207027 264.8177436 C-30.35990164 264.82343433 -41.30769744 264.81779502 -52.25552368 264.80657005 C-56.91892147 264.80192022 -61.58229754 264.80105188 -66.24569702 264.8031559 C-71.73515335 264.80503678 -77.22450679 264.79695029 -82.71393967 264.7810955 C-84.73118031 264.77684573 -86.74843138 264.77600674 -88.76567459 264.77878571 C-91.51422551 264.78199821 -94.26246721 264.77294916 -97.01098633 264.76069641 C-97.81370563 264.76447573 -98.61642492 264.76825506 -99.44346905 264.77214891 C-103.57451127 264.73945868 -105.64313348 264.39718326 -109.4375 262.5 C-109.4375 227.52 -109.4375 192.54 -109.4375 156.5 C-107.4575 155.51 -107.4575 155.51 -105.4375 154.5 C-105.540625 153.22125 -105.64375 151.9425 -105.75 150.625 C-105.80800781 149.90570313 -105.86601563 149.18640625 -105.92578125 148.4453125 C-106.31143036 146.10480784 -106.31143036 146.10480784 -109.4375 144.5 C-109.625 141.375 -109.625 141.375 -109.4375 138.5 C-107.4575 137.51 -107.4575 137.51 -105.4375 136.5 C-105.540625 135.22125 -105.64375 133.9425 -105.75 132.625 C-105.80800781 131.90570313 -105.86601563 131.18640625 -105.92578125 130.4453125 C-106.31143036 128.10480784 -106.31143036 128.10480784 -109.4375 126.5 C-109.94921875 123.6796875 -109.94921875 123.6796875 -110.125 120.375 C-110.19074219 119.27929688 -110.25648437 118.18359375 -110.32421875 117.0546875 C-110.36160156 116.21164062 -110.39898437 115.36859375 -110.4375 114.5 C-111.66726562 115.76457031 -111.66726562 115.76457031 -112.921875 117.0546875 C-114.01014734 118.16172316 -115.09870398 119.26847939 -116.1875 120.375 C-116.99574219 121.20837891 -116.99574219 121.20837891 -117.8203125 122.05859375 C-123.07765719 127.3800524 -123.07765719 127.3800524 -126.4375 128.5 C-129.1875 128.125 -129.1875 128.125 -131.4375 127.5 C-132.27734375 124.375 -132.27734375 124.375 -132.4375 120.5 C-130.66366006 118.0814078 -129.1977325 116.44544842 -127 114.5 C-126.49017578 114.01789063 -125.98035156 113.53578125 -125.45507812 113.0390625 C-122.55042369 110.31797359 -119.54186119 107.71712649 -116.5390625 105.10546875 C-112.3410021 101.4460331 -108.28940746 97.64538419 -104.25 93.8125 C-99.12898278 88.97257543 -93.99850543 84.14528055 -88.8125 79.375 C-84.1688222 75.10310688 -79.54679858 70.80897268 -74.9375 66.5 C-69.75979666 61.66034615 -64.56429723 56.84094129 -59.3515625 52.0390625 C-55.19778843 48.20948543 -51.06495863 44.35791031 -46.9375 40.5 C-41.76353854 35.6639299 -36.57290575 30.84687254 -31.36254883 26.05004883 C-27.75733406 22.72772601 -24.1719946 19.38492934 -20.59570312 16.03149414 C-18.67729146 14.23642931 -16.75138529 12.44971852 -14.82421875 10.6640625 C-12.82994569 8.814 -10.88297288 6.94634615 -8.95703125 5.0234375 C-5.87368292 2.02954802 -4.32411873 0.62896272 0 0 Z M56.5625 45.5 C55.9025 47.15 55.2425 48.8 54.5625 50.5 C56.5425 51.49 56.5425 51.49 58.5625 52.5 C58.5625 50.19 58.5625 47.88 58.5625 45.5 C57.9025 45.5 57.2425 45.5 56.5625 45.5 Z M81.5625 74.5 C81.8925 75.16 82.2225 75.82 82.5625 76.5 C83.2225 76.17 83.8825 75.84 84.5625 75.5 C83.5725 75.17 82.5825 74.84 81.5625 74.5 Z M84.5625 76.5 C85.2225 77.16 85.8825 77.82 86.5625 78.5 C86.5625 77.84 86.5625 77.18 86.5625 76.5 C85.9025 76.5 85.2425 76.5 84.5625 76.5 Z " fill="#CFD1D2" transform="translate(135.4375,292.5)"/>
<path d="M0 0 C25.41 0 50.82 0 77 0 C77 3.63 77 7.26 77 11 C75.44539063 11.22042969 75.44539063 11.22042969 73.859375 11.4453125 C72.48935998 11.67052045 71.11957954 11.89715867 69.75 12.125 C69.06808594 12.2178125 68.38617188 12.310625 67.68359375 12.40625 C64.11857439 13.02926309 62.17515252 13.82880253 59.578125 16.3671875 C57.31200986 21.58373969 57.18101475 26.35474335 57 32 C56.97427917 32.70793701 56.94855835 33.41587402 56.92205811 34.14526367 C56.71620031 39.84608136 56.57238369 45.5470673 56.4375 51.25 C56.293125 57.1075 56.14875 62.965 56 69 C78.11 69 100.22 69 123 69 C122.87625 62.998125 122.7525 56.99625 122.625 50.8125 C122.59100098 48.94698486 122.55700195 47.08146973 122.52197266 45.15942383 C123.08944415 29.59150355 123.08944415 29.59150355 118.15380859 15.72094727 C115.13835987 13.31152785 111.96276365 12.84656883 108.25 12.25 C107.55261719 12.12496094 106.85523438 11.99992187 106.13671875 11.87109375 C104.42693324 11.5666114 102.71374215 11.28136065 101 11 C101 7.37 101 3.74 101 0 C126.74 0 152.48 0 179 0 C179 3.63 179 7.26 179 11 C177.42798828 11.27263672 177.42798828 11.27263672 175.82421875 11.55078125 C174.44519905 11.80407058 173.06629881 12.05801096 171.6875 12.3125 C170.99720703 12.43044922 170.30691406 12.54839844 169.59570312 12.66992188 C165.77053237 13.39060622 163.39577887 13.88795678 161 17 C158.7920692 24.08021754 158.71344169 31.57550659 158.75708008 38.92822266 C158.75423256 40.47439522 158.75423256 40.47439522 158.75132751 42.05180359 C158.74765522 45.42263663 158.75827302 48.79324896 158.76953125 52.1640625 C158.77072516 54.52574641 158.77117577 56.8874308 158.7709198 59.24911499 C158.77247854 64.18303427 158.78072202 69.11688037 158.79418945 74.05078125 C158.81119688 80.35972365 158.81500283 86.66858596 158.81424427 92.9775486 C158.81451677 97.84869138 158.8200106 102.71981683 158.82724571 107.59095383 C158.83041631 109.91686243 158.83239601 112.24277298 158.83313942 114.56868362 C158.83531907 117.82267827 158.84409767 121.07658978 158.85473633 124.33056641 C158.85428314 125.28145645 158.85382996 126.2323465 158.85336304 127.21205139 C158.45520528 138.84357142 158.45520528 138.84357142 163 149 C167.9697851 151.30307114 173.64257031 151.98643222 179 153 C179 156.3 179 159.6 179 163 C153.26 163 127.52 163 101 163 C101 159.7 101 156.4 101 153 C102.12019531 152.72285156 103.24039063 152.44570313 104.39453125 152.16015625 C105.86720302 151.79433333 107.33985842 151.42844447 108.8125 151.0625 C109.91948242 150.78889648 109.91948242 150.78889648 111.04882812 150.50976562 C114.07060984 149.7577385 117.04456718 148.98514427 120 148 C122.0521265 133.98597747 122.42041833 120.08514661 122.625 105.9375 C122.74875 98.368125 122.8725 90.79875 123 83 C100.89 83 78.78 83 56 83 C56.12375 91.53875 56.2475 100.0775 56.375 108.875 C56.40899902 111.55093262 56.44299805 114.22686523 56.47802734 116.98388672 C56.51327122 119.13249901 56.54919661 121.28110028 56.5859375 123.4296875 C56.60297729 125.06949585 56.60297729 125.06949585 56.62036133 126.74243164 C56.41556758 137.79527459 56.41556758 137.79527459 60.34921265 147.70211792 C63.07698764 149.84674925 66.37422207 150.39243704 69.6875 151.1875 C70.38939453 151.36474609 71.09128906 151.54199219 71.81445312 151.72460938 C73.5406416 152.15909219 75.2700347 152.58080792 77 153 C77 156.3 77 159.6 77 163 C51.59 163 26.18 163 0 163 C0 159.7 0 156.4 0 153 C1.04800781 152.74605469 2.09601563 152.49210938 3.17578125 152.23046875 C4.55482599 151.88336225 5.93372478 151.53567556 7.3125 151.1875 C8.34793945 150.9390332 8.34793945 150.9390332 9.40429688 150.68554688 C13.13079531 149.73141926 15.57540801 149.01256482 18 146 C20.43815658 139.65802793 20.28641783 132.73082803 20.25878906 126.03930664 C20.2622937 124.98116257 20.26579834 123.92301849 20.26940918 122.83280945 C20.27816283 119.35852363 20.27239938 115.8844439 20.265625 112.41015625 C20.26697358 109.9807481 20.26891572 107.55134021 20.27142334 105.12193298 C20.27436607 100.0390261 20.27010466 94.95618968 20.26074219 89.87329102 C20.24935435 83.376024 20.25590842 76.87892236 20.26788712 70.38166142 C20.27513385 65.36721056 20.27280476 60.35279854 20.26763153 55.33834648 C20.2663025 52.94348569 20.26791644 50.54862132 20.27259064 48.15376472 C20.27770148 44.79911157 20.26988145 41.44472158 20.25878906 38.09008789 C20.26283752 37.11159882 20.26688599 36.13310974 20.27105713 35.12496948 C20.47628171 24.63437311 20.47628171 24.63437311 16.62601089 15.28941441 C12.13203891 11.72572844 5.52432563 11.58150796 0 11 C0 7.37 0 3.74 0 0 Z " fill="#A0333D" transform="translate(276,391)"/>
<path d="M0 0 C0 5.28 0 10.56 0 16 C1.11117187 15.25234375 2.22234375 14.5046875 3.3671875 13.734375 C16.67658769 4.86993382 26.62536443 -0.64254359 43 1 C46.44101284 1.82721361 49.06935995 3.03253624 52 5 C52.69480469 5.46277344 53.38960937 5.92554688 54.10546875 6.40234375 C61.9091217 12.39051271 65.80528549 20.8822324 67.14477539 30.49169922 C68.10199867 37.86536565 68.29587235 45.14275234 68.30859375 52.5703125 C68.31973265 53.90836657 68.33213406 55.24641066 68.34571838 56.58444214 C68.40039823 62.19129847 68.43200438 67.7982108 68.45629883 73.40527344 C68.46909774 76.19453234 68.48975132 78.98353562 68.51856995 81.77267456 C68.54479136 84.38351914 68.55870655 86.99452302 68.5589447 89.60549927 C68.57895287 91.36916336 68.57895287 91.36916336 68.59936523 93.16845703 C68.60443588 94.20100616 68.60950653 95.2335553 68.61473083 96.2973938 C69.05627181 99.39473844 69.86236146 100.75042135 72 103 C74.2447661 104.10805199 74.2447661 104.10805199 76.6875 104.75 C78.110625 105.1625 79.53375 105.575 81 106 C81 108.97 81 111.94 81 115 C61.86 115 42.72 115 23 115 C23 112.03 23 109.06 23 106 C23.63808594 105.73445312 24.27617188 105.46890625 24.93359375 105.1953125 C25.75988281 104.84210938 26.58617187 104.48890625 27.4375 104.125 C28.26121094 103.77695312 29.08492187 103.42890625 29.93359375 103.0703125 C32.15746715 102.1755063 32.15746715 102.1755063 33 100 C34.5845657 89.63227029 34.18614973 78.92740804 34.18530273 68.47290039 C34.18749763 65.44077684 34.20573407 62.40901305 34.22460938 59.37695312 C34.22754293 57.41666789 34.22952798 55.45638096 34.23046875 53.49609375 C34.24124702 52.16124184 34.24124702 52.16124184 34.25224304 50.79942322 C34.2163973 40.76361259 33.48486279 31.68075075 26.25 24.1875 C20.13059952 20.95781641 14.80052224 21.9841022 8.4921875 23.91796875 C7.66976562 24.27503906 6.84734375 24.63210938 6 25 C4.97140869 25.4115332 3.94281738 25.82306641 2.88305664 26.24707031 C-0.50733404 29.48443549 -0.46476548 30.27146907 -0.69702148 34.78735352 C-0.70284768 37.2346617 -0.67525355 39.68219049 -0.62109375 42.12890625 C-0.61497574 43.42892075 -0.60885773 44.72893524 -0.60255432 46.06834412 C-0.58533016 49.52863722 -0.53128171 52.98744527 -0.47027588 56.44720459 C-0.42695593 59.24299531 -0.40917216 62.03865731 -0.39300442 64.83471775 C-1.84773522 84.45378666 -1.84773522 84.45378666 2.6875 102.5625 C5.37227403 104.23141359 7.956341 105.16991118 11 106 C11 108.97 11 111.94 11 115 C-8.47 115 -27.94 115 -48 115 C-48 112.03 -48 109.06 -48 106 C-47.07767578 105.70996094 -47.07767578 105.70996094 -46.13671875 105.4140625 C-44.92435547 105.02347656 -44.92435547 105.02347656 -43.6875 104.625 C-42.88699219 104.36976563 -42.08648438 104.11453125 -41.26171875 103.8515625 C-38.77275472 103.01168189 -38.77275472 103.01168189 -36 101 C-34.83940683 97.51822048 -34.86584944 94.78800061 -34.85473633 91.11352539 C-34.85137772 90.4172554 -34.8480191 89.72098541 -34.84455872 89.00361633 C-34.8350586 86.7016115 -34.83310613 84.39967947 -34.83203125 82.09765625 C-34.82881821 80.49726837 -34.82545411 78.89688079 -34.82194519 77.29649353 C-34.81595642 73.94155191 -34.81410505 70.58663604 -34.81469727 67.23168945 C-34.81479892 62.93305553 -34.80114231 58.63458665 -34.78392506 54.33599186 C-34.77280644 51.03058616 -34.77077801 47.72522039 -34.77130699 44.4197979 C-34.77012684 42.83496977 -34.76570306 41.25014061 -34.75797462 39.66533089 C-34.74817667 37.44872597 -34.75105177 35.23247984 -34.75708008 33.01586914 C-34.75565506 31.75472794 -34.75423004 30.49358673 -34.75276184 29.19422913 C-34.98748029 26.16175022 -35.28715089 24.47861837 -37 22 C-39.38842417 20.65852458 -39.38842417 20.65852458 -42.125 19.75 C-43.49011719 19.24726563 -43.49011719 19.24726563 -44.8828125 18.734375 C-45.58148437 18.49203125 -46.28015625 18.2496875 -47 18 C-47 15.03 -47 12.06 -47 9 C-46.23558594 8.86948242 -45.47117187 8.73896484 -44.68359375 8.60449219 C-25.11325415 5.27247367 -25.11325415 5.27247367 -5.80859375 0.69921875 C-3 0 -3 0 0 0 Z " fill="#A0333D" transform="translate(861,439)"/>
<path d="M0 0 C12.26283982 10.16549742 19.1858897 24.28526953 21 40 C22.41326195 58.28407648 17.10353819 75.0095126 5.34765625 88.9609375 C-4.6959015 99.78434797 -19.57985922 105.47300091 -34.10546875 106.2578125 C-51.40002174 106.86108907 -66.40972661 102.74960939 -79.75 91.3125 C-91.12832164 80.42043142 -97.42932491 66.06578396 -98.06640625 50.3125 C-97.6901908 31.5459883 -91.89443712 16.39204725 -78.375 3.25 C-56.57317738 -15.40861507 -23.20850245 -16.65744999 0 0 Z M-52.66015625 6.0703125 C-63.87262703 23.20583295 -62.27042087 46.97493773 -58.3359375 66.25390625 C-55.92415616 75.78176769 -52.20253346 86.22680301 -44.15234375 92.421875 C-39.79389472 94.95202831 -36.0657595 95.53951933 -31.10546875 94.66015625 C-26.64498969 93.26160159 -24.11205478 90.89379625 -21.81640625 86.984375 C-12.27005374 66.98249355 -14.10485825 39.03437604 -20.06640625 18.2890625 C-22.68515718 11.42672507 -26.52144155 4.73389914 -32.9453125 0.8125 C-40.24732649 -2.07498842 -47.80952637 0.02129171 -52.66015625 6.0703125 Z " fill="#A0333D" transform="translate(778,451)"/>
<path d="M0 0 C0.78987305 0.00161133 1.57974609 0.00322266 2.39355469 0.00488281 C11.50521858 0.19494206 18.97795464 2.79412798 26.25 8.375 C27.219375 9.055625 28.18875 9.73625 29.1875 10.4375 C37.68463165 17.77186627 41.56057376 28.29092131 42.4921875 39.21484375 C42.60588522 43.51640739 42.57006589 46.63666061 40.25 50.375 C37.89113566 51.55443217 36.13714744 51.65625496 33.5078125 51.875 C32.53416748 51.9570166 31.56052246 52.0390332 30.55737305 52.12353516 C28.98209839 52.24801025 28.98209839 52.24801025 27.375 52.375 C26.29452393 52.46185059 25.21404785 52.54870117 24.10083008 52.63818359 C7.7984352 53.91478338 -8.39821527 54.54147745 -24.75 54.375 C-23.44274349 63.51432839 -21.97633522 71.24366442 -17.0546875 79.23828125 C-15.75 81.375 -15.75 81.375 -14.75 84.375 C-12.98408113 85.38416033 -12.98408113 85.38416033 -10.75 86.375 C-9.326875 87.365 -9.326875 87.365 -7.875 88.375 C-0.56170216 93.05551062 6.79549866 93.10857929 15.25 92.375 C22.19276942 90.80439921 27.7371854 87.72939785 33.375 83.44921875 C33.99375 83.09472656 34.6125 82.74023438 35.25 82.375 C38.25 83.375 38.25 83.375 40 85.6875 C41.25 88.375 41.25 88.375 41.07421875 90.24609375 C37.23898437 100.15226786 24.8984486 108.85663968 15.625 113.25 C2.38060383 118.72091191 -12.1713432 119.39853645 -25.75 114.375 C-39.5090257 108.26399262 -48.45713797 99.10693106 -54.0625 85.0625 C-59.648476 68.11195213 -58.50820444 50.73473653 -51.46875 34.40234375 C-47.93623848 27.4256335 -43.24798077 21.89190669 -37.75 16.375 C-37.13511719 15.73691406 -36.52023437 15.09882813 -35.88671875 14.44140625 C-26.34782593 5.27017953 -13.14922609 -0.02801284 0 0 Z M-16.9375 19.0625 C-21.85304698 26.01117897 -22.93824024 33.08161443 -23.75 41.375 C-19.18751341 41.40406612 -14.6250507 41.42182113 -10.0625 41.4375 C-8.76892578 41.44587891 -7.47535156 41.45425781 -6.14257812 41.46289062 C-4.89541016 41.46611328 -3.64824219 41.46933594 -2.36328125 41.47265625 C-0.64298706 41.48051147 -0.64298706 41.48051147 1.11206055 41.48852539 C3.97684619 41.38488225 6.49646698 41.16793493 9.25 40.375 C12.00112128 34.87275744 9.97782964 28.2246126 8.1640625 22.70703125 C6.48320356 18.41868601 4.49042838 15.35428556 0.875 12.5 C-6.90034023 9.16771133 -12.03528726 12.99828127 -16.9375 19.0625 Z " fill="#A0333D" transform="translate(522.75,439.625)"/>
<path d="M0 0 C0.495 11.88 0.495 11.88 1 24 C2.464375 22.02 3.92875 20.04 5.4375 18 C10.7125086 11.04578903 16.39351752 3.71234599 25 1 C31.17626276 0.30775512 36.77965653 0.30756193 42 4 C46.34721492 8.69969181 47.31178738 12.37521892 47.2109375 18.59765625 C46.57904331 25.79422898 43.12505376 31.06179715 38 36 C34.89410053 38.07059964 32.96369367 38.58590617 29.25390625 38.53125 C25.47835139 37.64134452 23.00204545 35.18649451 20.17578125 32.62890625 C17.70488764 30.7790631 16.05426585 30.28170413 13 30 C7.59546993 31.60986002 5.20525636 34.85003989 2.27023315 39.40014648 C0.10569856 43.83041415 0.23735286 47.99461814 0.37890625 52.84375 C0.38502426 53.85288452 0.39114227 54.86201904 0.39744568 55.9017334 C0.4241926 59.10220617 0.49319106 62.30019706 0.5625 65.5 C0.58405213 67.64711026 0.60295602 69.79424882 0.61914062 71.94140625 C0.55896243 87.10286631 0.55896243 87.10286631 3 102 C4.05960938 102.20496094 5.11921875 102.40992188 6.2109375 102.62109375 C7.59898822 102.89307666 8.98700744 103.16522044 10.375 103.4375 C11.42300781 103.63956055 11.42300781 103.63956055 12.4921875 103.84570312 C17.7734375 104.88671875 17.7734375 104.88671875 20 106 C20 108.97 20 111.94 20 115 C-2.11 115 -24.22 115 -47 115 C-47 112.03 -47 109.06 -47 106 C-45.4221875 105.5978125 -45.4221875 105.5978125 -43.8125 105.1875 C-40.40304258 104.12553785 -37.89836091 103.04590182 -35 101 C-33.51754487 98.03508974 -33.84808999 95.35217903 -33.82299805 92.04345703 C-33.81642685 91.32782593 -33.80985565 90.61219482 -33.80308533 89.87487793 C-33.78334611 87.50252177 -33.77168918 85.13022888 -33.76171875 82.7578125 C-33.75764322 81.94822964 -33.7535677 81.13864677 -33.74936867 80.3045311 C-33.72850651 76.02056889 -33.71420474 71.73663875 -33.70483398 67.45263672 C-33.6937616 63.02490047 -33.65935301 58.59766569 -33.61966228 54.17010689 C-33.59353685 50.7677618 -33.58514587 47.36553701 -33.58155251 43.96310043 C-33.57667694 42.33079512 -33.56503534 40.69849552 -33.54651451 39.06628799 C-33.52220559 36.78222967 -33.52307206 34.49947969 -33.5300293 32.21533203 C-33.52416306 30.91564484 -33.51829681 29.61595764 -33.51225281 28.27688599 C-33.73988338 24.94987993 -33.73988338 24.94987993 -35.79499817 22.62716675 C-38.68565457 20.49402567 -41.52688242 19.80148867 -45 19 C-45 15.7 -45 12.4 -45 9 C-43.48792969 8.76925781 -41.97585938 8.53851563 -40.41796875 8.30078125 C-28.5781159 6.44059205 -17.04577921 4.20539495 -5.5078125 0.953125 C-2 0 -2 0 0 0 Z " fill="#A0333D" transform="translate(626,439)"/>
<path d="M0 0 C4.53961279 1.91141591 7.14880459 4.67405154 10.44921875 8.2734375 C12.37065799 10.29787441 14.28188035 11.90408106 16.5625 13.5 C17.5525 10.53 18.5425 7.56 19.5625 4.5 C23.68303819 6.56026909 27.13979554 8.53531288 29.875 12.3125 C31.04150552 16.02410847 31.32507671 19.97484659 29.5625 23.5 C28.2425 23.17 26.9225 22.84 25.5625 22.5 C30.38540536 26.94029492 35.19909326 31.30158361 40.4375 35.25 C43.66751615 37.70252554 46.22318928 40.14359766 48.5625 43.5 C48.7584375 42.943125 48.954375 42.38625 49.15625 41.8125 C51.71743257 35.27706862 55.35396865 31.13963836 60.5625 26.5 C63.5625 27.5 63.5625 27.5 65.25 30.875 C66.98162599 36.0235778 67.46124702 41.13202915 66.5625 46.5 C65.1665018 49.19375948 63.88961615 50.44992148 61.5625 52.5 C60.9025 52.5 60.2425 52.5 59.5625 52.5 C65.01716718 59.16474693 71.1200694 64.81481712 77.5625 70.5 C78.573125 70.005 79.58375 69.51 80.625 69 C85.05153796 67.14227624 88.86236408 66.60173696 93.53515625 68.15625 C100.71342377 71.3650324 106.04226536 77.17167151 110.5625 83.5 C110.5625 84.16 110.5625 84.82 110.5625 85.5 C106.6025 86.82 102.6425 88.14 98.5625 89.5 C101.31158147 92.67608777 101.31158147 92.67608777 104.875 93.6875 C108.88936323 95.30334432 110.62623414 97.83621391 113.04296875 101.32421875 C116.8847596 106.8251892 121.3070129 111.33811081 126.5 115.5625 C129.75831428 118.376751 130.46370127 118.98953991 131.3125 123.375 C130.5625 126.5 130.5625 126.5 127.5625 128.5 C122.26385678 128.50915137 119.30699827 124.90725863 115.75 121.4375 C114.8537793 120.58575195 114.8537793 120.58575195 113.93945312 119.71679688 C112.47212991 118.31990517 111.0161658 116.91109872 109.5625 115.5 C109.56107498 116.35777542 109.55964996 117.21555084 109.55818176 118.09931946 C109.54036215 126.17782102 109.49878021 134.25577382 109.43040943 142.33401203 C109.39609841 146.4873154 109.37102317 150.64024935 109.36694336 154.79370117 C109.36266904 158.80110202 109.3342802 162.80766898 109.28906822 166.8148098 C109.27606513 168.34458753 109.27179551 169.87446493 109.27634621 171.40429115 C109.28123298 173.545593 109.25525389 175.68443931 109.22192383 177.82543945 C109.21526199 179.04455521 109.20860016 180.26367096 109.20173645 181.51972961 C108.5625 184.5 108.5625 184.5 106.02128601 186.41716003 C105.20988663 186.77449722 104.39848724 187.13183441 103.5625 187.5 C101.08685303 185.97149658 101.08685303 185.97149658 98.5625 183.5 C98.14130481 180.76303944 98.03734081 178.67345368 98.17285156 175.95605469 C98.18967484 175.20088562 98.20649811 174.44571655 98.22383118 173.66766357 C98.26180383 172.02832525 98.31036561 170.38920574 98.36826324 168.75045013 C98.45414319 166.14093656 98.49830555 163.53386626 98.52947998 160.92315674 C98.62030532 153.50224404 98.74269324 146.08427328 98.99755859 138.66699219 C100.77932572 117.13118046 100.77932572 117.13118046 93.92626953 97.60009766 C90.54014768 94.0704588 86.85529309 91.34790311 82.670578 88.83757019 C79.37909243 86.74913087 76.70977008 84.09290438 73.9375 81.375 C72.89760397 80.41203572 71.85499964 79.45198007 70.80859375 78.49609375 C67.18870565 75.16142921 63.59463215 71.79934039 60 68.4375 C55.54132338 64.26874495 51.06783745 60.11830175 46.5625 56 C42.0571612 51.88169702 37.58376926 47.73115745 33.125 43.5625 C27.86211617 38.64239655 22.5987928 33.72283067 17.28564453 28.85693359 C14.56409947 26.36323882 11.87512988 23.84469701 9.2265625 21.2734375 C8.68475342 20.75547607 8.14294434 20.23751465 7.5847168 19.70385742 C6.55303166 18.71667573 5.5304765 17.71983385 4.51879883 16.7121582 C1.92575374 14.19301422 1.92575374 14.19301422 -1.48046875 13.41796875 C-4.20782229 14.92590674 -6.0438506 16.86529315 -8.1875 19.125 C-11.74657361 22.85628684 -15.43125025 26.27911762 -19.33154297 29.65234375 C-22.84926214 32.73860606 -26.23075926 35.96679701 -29.625 39.1875 C-34.74601722 44.02742457 -39.87649457 48.85471945 -45.0625 53.625 C-49.7061778 57.89689312 -54.32820142 62.19102732 -58.9375 66.5 C-64.10914681 71.33399274 -69.29692138 76.14957958 -74.50585938 80.94335938 C-77.48543905 83.68838419 -80.45190718 86.44656319 -83.40625 89.21875 C-84.07720703 89.8478125 -84.74816406 90.476875 -85.43945312 91.125 C-86.73650556 92.34217531 -88.03216256 93.56083997 -89.32617188 94.78125 C-89.91978516 95.338125 -90.51339844 95.895 -91.125 96.46875 C-91.96901367 97.27324585 -91.96901367 97.27324585 -92.83007812 98.09399414 C-94.4375 99.5 -94.4375 99.5 -97.34375 101.21484375 C-100.83658926 105.02699108 -100.02062741 109.59084134 -99.9375 114.5625 C-99.81251659 122.06631141 -99.81251659 122.06631141 -100.4375 125.5 C-102.71875 127.80859375 -102.71875 127.80859375 -105.4375 128.5 C-107.703125 128.0703125 -107.703125 128.0703125 -109.4375 126.5 C-110.046875 123.6796875 -110.046875 123.6796875 -110.1875 120.375 C-110.24421875 119.27929688 -110.3009375 118.18359375 -110.359375 117.0546875 C-110.38515625 116.21164062 -110.4109375 115.36859375 -110.4375 114.5 C-111.66726562 115.76457031 -111.66726562 115.76457031 -112.921875 117.0546875 C-114.01014734 118.16172316 -115.09870398 119.26847939 -116.1875 120.375 C-116.99574219 121.20837891 -116.99574219 121.20837891 -117.8203125 122.05859375 C-123.07765719 127.3800524 -123.07765719 127.3800524 -126.4375 128.5 C-129.1875 128.125 -129.1875 128.125 -131.4375 127.5 C-132.27734375 124.375 -132.27734375 124.375 -132.4375 120.5 C-130.66366006 118.0814078 -129.1977325 116.44544842 -127 114.5 C-126.49017578 114.01789063 -125.98035156 113.53578125 -125.45507812 113.0390625 C-122.55042369 110.31797359 -119.54186119 107.71712649 -116.5390625 105.10546875 C-112.3410021 101.4460331 -108.28940746 97.64538419 -104.25 93.8125 C-99.12898278 88.97257543 -93.99850543 84.14528055 -88.8125 79.375 C-84.1688222 75.10310688 -79.54679858 70.80897268 -74.9375 66.5 C-69.75979666 61.66034615 -64.56429723 56.84094129 -59.3515625 52.0390625 C-55.19778843 48.20948543 -51.06495863 44.35791031 -46.9375 40.5 C-41.76353854 35.6639299 -36.57290575 30.84687254 -31.36254883 26.05004883 C-27.75733406 22.72772601 -24.1719946 19.38492934 -20.59570312 16.03149414 C-18.67729146 14.23642931 -16.75138529 12.44971852 -14.82421875 10.6640625 C-12.82994569 8.814 -10.88297288 6.94634615 -8.95703125 5.0234375 C-5.87368292 2.02954802 -4.32411873 0.62896272 0 0 Z M56.5625 45.5 C55.9025 47.15 55.2425 48.8 54.5625 50.5 C56.5425 51.49 56.5425 51.49 58.5625 52.5 C58.5625 50.19 58.5625 47.88 58.5625 45.5 C57.9025 45.5 57.2425 45.5 56.5625 45.5 Z M81.5625 74.5 C81.8925 75.16 82.2225 75.82 82.5625 76.5 C83.2225 76.17 83.8825 75.84 84.5625 75.5 C83.5725 75.17 82.5825 74.84 81.5625 74.5 Z M84.5625 76.5 C85.2225 77.16 85.8825 77.82 86.5625 78.5 C86.5625 77.84 86.5625 77.18 86.5625 76.5 C85.9025 76.5 85.2425 76.5 84.5625 76.5 Z " fill="#504E4D" transform="translate(135.4375,292.5)"/>
<path d="M0 0 C3.29714793 0.32971479 4.6226839 0.6226839 7 3 C7 35.01 7 67.02 7 100 C72.67 100 138.34 100 206 100 C206 87.46 206 74.92 206 62 C209 59 209 59 211.5625 58.6875 C214 59 214 59 216 61 C216.26742554 62.96665955 216.26742554 62.96665955 216.29052734 65.40209961 C216.30328705 66.31322006 216.31604675 67.22434052 216.32919312 68.16307068 C216.33141876 69.14953079 216.33364441 70.13599091 216.3359375 71.15234375 C216.3459227 72.66895348 216.3459227 72.66895348 216.35610962 74.21620178 C216.36624713 76.35725074 216.3709263 78.49833136 216.37060547 80.6394043 C216.37497793 83.92093796 216.4112847 87.20112645 216.44921875 90.48242188 C216.45508671 92.55989122 216.45905624 94.63736697 216.4609375 96.71484375 C216.47530853 97.69927963 216.48967957 98.68371552 216.50448608 99.69798279 C216.49833282 100.6122554 216.49217957 101.52652802 216.48583984 102.46850586 C216.48868988 103.27299667 216.49153992 104.07748749 216.49447632 104.90635681 C216 107 216 107 214.49575233 108.60746384 C210.93230357 110.59573455 207.54752034 110.41072978 203.57348633 110.3742218 C202.7153449 110.37819621 201.85720346 110.38217061 200.97305775 110.38626546 C198.09254793 110.39590333 195.21252743 110.38406131 192.33203125 110.37231445 C190.26899024 110.37474192 188.2059504 110.37846081 186.14291382 110.38337708 C180.5355603 110.39279579 174.92838103 110.38335233 169.32104111 110.37004495 C163.4585746 110.3587434 157.59611684 110.36283695 151.73364258 110.36479187 C141.88782905 110.36567526 132.04208432 110.35458512 122.19628906 110.33618164 C110.80597424 110.31501337 99.41576023 110.31150389 88.02542973 110.3177436 C77.07759836 110.32343433 66.12980256 110.31779502 55.18197632 110.30657005 C50.51857853 110.30192022 45.85520246 110.30105188 41.19180298 110.3031559 C35.70234665 110.30503678 30.21299321 110.29695029 24.72356033 110.2810955 C22.70631969 110.27684573 20.68906862 110.27600674 18.67182541 110.27878571 C15.92327449 110.28199821 13.17503279 110.27294916 10.42651367 110.26069641 C9.22243473 110.2663654 9.22243473 110.2663654 7.99403095 110.27214891 C4.18913321 110.24203957 1.22412665 110.15265182 -2 108 C-2.04668163 94.2138745 -2.0818371 80.42776121 -2.10362434 66.64157295 C-2.11407904 60.24067577 -2.12826892 53.83983154 -2.15087891 47.43896484 C-2.17254725 41.26632031 -2.18455591 35.09372683 -2.18975449 28.92104721 C-2.19346107 26.5614326 -2.20069867 24.20182091 -2.21146011 21.84222794 C-2.22589516 18.54726282 -2.2279813 15.25251097 -2.22705078 11.95751953 C-2.23424133 10.9735318 -2.24143188 9.98954407 -2.24884033 8.97573853 C-2.246091 8.08108887 -2.24334167 7.18643921 -2.24050903 6.26467896 C-2.24235262 5.48484209 -2.24419621 4.70500523 -2.24609566 3.90153694 C-2 2 -2 2 0 0 Z " fill="#A0333D" transform="translate(28,447)"/>
<path d="M0 0 C5.22418987 4.40470911 10.23350376 8.98239144 15.1875 13.6875 C21.0721935 19.252249 26.99331666 24.7678752 32.9765625 30.2265625 C37.09050506 33.98874511 41.15648108 37.80257747 45.22314453 41.61572266 C45.79919434 42.15503418 46.37524414 42.6943457 46.96875 43.25 C47.54257416 43.80799286 48.11639832 44.36598572 48.70761108 44.94088745 C51.03513564 47.10868559 51.03513564 47.10868559 53.97473145 49.12316895 C58.71026284 52.63740508 62.94008031 56.01751638 64.0682373 62.0534668 C64.56419648 66.85970744 64.40255317 71.64776766 64.25 76.46875 C64.23988079 78.2394376 64.23566901 80.01016782 64.23706055 81.78088379 C64.22763698 86.41069788 64.15023426 91.03666807 64.05438232 95.66540527 C63.911763 103.09921731 63.87202027 110.53417791 63.83557129 117.96913147 C63.81277973 120.56192758 63.7597919 123.15276687 63.70214844 125.74499512 C63.68229809 127.32673358 63.66305871 128.90847987 63.64453125 130.49023438 C63.62064835 131.21022614 63.59676544 131.9302179 63.57215881 132.67202759 C63.51520892 134.90375092 63.51520892 134.90375092 64 138 C65.89357374 139.86103085 65.89357374 139.86103085 68 141 C68.390625 143.26171875 68.390625 143.26171875 68.25 145.6875 C68.21390625 146.49574219 68.1778125 147.30398438 68.140625 148.13671875 C68.09421875 148.75160156 68.0478125 149.36648438 68 150 C68.639375 150.144375 69.27875 150.28875 69.9375 150.4375 C72 151 72 151 73 152 C73.3125 154.375 73.3125 154.375 73 157 C72.360625 157.433125 71.72125 157.86625 71.0625 158.3125 C68.83828821 159.76268415 68.83828821 159.76268415 68.65234375 161.85546875 C68.55287954 163.25561876 68.49001541 164.65898265 68.46875 166.0625 C68.3140625 166.701875 68.159375 167.34125 68 168 C67.34290039 168.35747314 66.68580078 168.71494629 66.00878906 169.08325195 C63.38019914 171.59140211 63.48572212 173.60922944 63.39434814 177.1335907 C63.39250519 178.35717033 63.39250519 178.35717033 63.390625 179.60546875 C63.37408875 180.44467361 63.35755249 181.28387848 63.34051514 182.14851379 C63.29193977 184.82824958 63.27064372 187.50741757 63.25 190.1875 C63.22184819 192.00458601 63.19192187 193.82164545 63.16015625 195.63867188 C63.0861786 200.09240118 63.03666257 204.54581351 63 209 C60.03 209 57.06 209 54 209 C54.0040642 208.25769481 54.0081284 207.51538961 54.01231575 206.75059032 C54.10794206 188.65420298 54.14802719 170.55846335 54.12697029 152.46182537 C54.11811399 143.71016902 54.12777104 134.95927729 54.18164062 126.20776367 C54.2285689 118.57617424 54.2401197 110.94547292 54.2099179 103.3137849 C54.19515398 99.27576348 54.19760962 95.23947084 54.24249649 91.20163536 C54.28427433 87.39304379 54.27839509 83.5873677 54.23747826 79.77879524 C54.23066472 78.38852952 54.2405975 76.99805378 54.26943016 75.60807037 C54.42306549 67.67532163 53.62849674 62.90439108 48.20065308 56.92414856 C46.47319159 55.27635802 44.7397669 53.63479294 43 52 C41.49260773 50.21090558 40.00916226 48.40104795 38.5625 46.5625 C34.90428985 42.02683557 31.05257035 37.7429883 27.08618164 33.48071289 C23.3132409 29.40219622 19.81763933 25.13872473 16.3359375 20.80859375 C13.25583769 17.10526304 10.00844 13.57394077 6.71679688 10.05859375 C0 2.85991833 0 2.85991833 0 0 Z " fill="#A6A8AB" transform="translate(171,338)"/>
<path d="M0 0 C0.66 0.33 1.32 0.66 2 1 C1.57589844 1.4125 1.15179688 1.825 0.71484375 2.25 C-3.0071878 5.91476953 -6.51551874 9.68625319 -9.92578125 13.640625 C-12.52629197 16.59864473 -15.19734226 19.4868951 -17.875 22.375 C-22.19236816 27.03451691 -26.5063477 31.69441994 -30.6894083 36.47570229 C-33 39 -33 39 -35.3507452 41.13347435 C-40.19192294 45.74089127 -42.57427336 49.14702812 -43.12025452 55.89712524 C-43.16390898 58.57667153 -43.16016172 61.22801362 -43.11352539 63.90478516 C-43.12086285 65.38409794 -43.13215335 66.86339553 -43.14706421 68.34265137 C-43.17619587 72.33026777 -43.15051125 76.31581492 -43.11447453 80.30330324 C-43.08621073 84.48072114 -43.1090581 88.65786354 -43.12632751 92.83529663 C-43.15129072 100.73301938 -43.13073681 108.62993161 -43.09355396 116.52757967 C-43.05343429 125.52409148 -43.06447543 134.52031741 -43.07967007 143.51687932 C-43.10976767 162.01150508 -43.07608529 180.50552142 -43 199 C-45.97 199 -48.94 199 -52 199 C-52.00364563 197.79143845 -52.00729126 196.58287689 -52.01104736 195.33769226 C-52.04794603 183.9628845 -52.10566233 172.58834875 -52.18390274 161.21374798 C-52.22345676 155.36555017 -52.25560633 149.51750473 -52.27099609 143.66918945 C-52.28611049 138.02802023 -52.32046298 132.38726967 -52.36830902 126.74628639 C-52.38317679 124.59129278 -52.39104409 122.43623942 -52.39188385 120.28119469 C-52.39423904 117.2686303 -52.42120171 114.25723668 -52.45410156 111.24487305 C-52.4490712 110.34863724 -52.44404083 109.45240143 -52.43885803 108.52900696 C-52.36155391 103.75627139 -52.36155391 103.75627139 -55.00262451 100.04548645 C-55.66175842 99.70047592 -56.32089233 99.35546539 -57 99 C-57.50390625 97.02734375 -57.50390625 97.02734375 -57.5625 94.9375 C-57.706875 93.638125 -57.85125 92.33875 -58 91 C-58.99 90.34 -59.98 89.68 -61 89 C-61.1875 85.875 -61.1875 85.875 -61 83 C-59.02 82.01 -59.02 82.01 -57 81 C-57 78.03 -57 75.06 -57 72 C-55.02 71.01 -55.02 71.01 -53 70 C-53.0220752 69.38068604 -53.04415039 68.76137207 -53.06689453 68.12329102 C-53.5088498 50.56129808 -53.5088498 50.56129808 -50.26953125 45.0625 C-47.64176527 42.80887156 -44.86229948 40.94775989 -42 39 C-39.31835664 36.64318751 -36.75928782 34.16303736 -34.1875 31.6875 C-32.80129305 30.38088544 -31.41327684 29.07618764 -30.0234375 27.7734375 C-29.00588379 26.81775879 -29.00588379 26.81775879 -27.96777344 25.84277344 C-23.54766733 21.70344827 -19.08974185 17.60504151 -14.63378906 13.50439453 C-11.64892542 10.75592924 -8.66855716 8.0025924 -5.6875 5.25 C-4.58725747 4.23435562 -3.4869988 3.21872873 -2.38671875 2.203125 C-1.59910156 1.47609375 -0.81148437 0.7490625 0 0 Z " fill="#E4E4E5" transform="translate(87,348)"/>
<path d="M0 0 C0.75297441 3.3379889 1.11353954 6.39285089 1.0625 9.8125 C1.05347656 10.60269531 1.04445312 11.39289062 1.03515625 12.20703125 C1.02355469 12.79871094 1.01195312 13.39039063 1 14 C-0.32 14 -1.64 14 -3 14 C-3.433125 13.071875 -3.86625 12.14375 -4.3125 11.1875 C-6.46610641 7.11957679 -7.63394185 5.45535272 -12 4 C-17.21335806 3.50076163 -21.62247649 3.37385295 -26.4375 5.5625 C-31.90382146 10.76217163 -34.10374713 16.60233156 -34.3125 24.0625 C-34.2321774 30.7292761 -32.92245677 37.55104319 -28.50390625 42.765625 C-24.03828762 46.64102471 -19.97085316 47.3657148 -14.27734375 47.2734375 C-9.90903936 46.74894126 -7.23118769 44.52107051 -4.5234375 41.17578125 C-3.29709543 39.48699176 -2.14215607 37.74682693 -1 36 C-0.01 36.33 0.98 36.66 2 37 C1.47184698 42.17589957 0.8519748 46.59240257 -2 51 C-5.26495845 52.41627756 -8.47203586 52.73540269 -12 53 C-12.9075 53.06960938 -13.815 53.13921875 -14.75 53.2109375 C-23.99308955 53.5523016 -31.98244678 51.63912215 -39.2421875 45.74609375 C-44.91395665 40.11213639 -47.11507063 34.25139267 -47.3125 26.375 C-47.20591305 19.07379378 -45.868716 13.30832278 -41.01171875 7.70703125 C-36.3620922 3.29831799 -32.14654751 0.7415218 -26 -1 C-24.824375 -1.3403125 -24.824375 -1.3403125 -23.625 -1.6875 C-15.5044517 -2.65423194 -7.96255322 -1.69544859 0 0 Z " fill="#2B9E1B" transform="translate(147,567)"/>
<path d="M0 0 C1.81115956 1.81115956 1.38199448 4.61278227 1.5625 7.0625 C1.64628906 8.16722656 1.73007812 9.27195312 1.81640625 10.41015625 C1.87699219 11.26480469 1.93757812 12.11945312 2 13 C0.68 13.33 -0.64 13.66 -2 14 C-5 8.25 -5 8.25 -5 6 C-11.44798846 4.05997008 -11.44798846 4.05997008 -18 5 C-19.09200812 9.82318857 -19.09200812 9.82318857 -17.91796875 14.48828125 C-15.5248414 17.62225454 -13.04697696 19.0580085 -9.625 21 C-4.16898591 24.11055516 2.01009802 27.66849369 4 34 C4.52189544 39.30593698 4.24047429 42.92963307 1.34375 47.4609375 C-1.93653614 51.21800942 -6.9802653 53.73925986 -11.9453125 54.16796875 C-17.34916792 54.21639039 -22.98639969 54.23186078 -28 52 C-30.57439721 47.60207143 -30.57434933 42.04060004 -31 37 C-28.8125 37 -28.8125 37 -26 38 C-24.765625 39.7421875 -24.765625 39.7421875 -23.5625 41.875 C-21.28687828 45.82366448 -19.51158937 47.64652319 -15 49 C-11.22623449 48.78384744 -11.22623449 48.78384744 -8 48 C-7.773125 46.783125 -7.54625 45.56625 -7.3125 44.3125 C-7.12107422 43.28576172 -7.12107422 43.28576172 -6.92578125 42.23828125 C-7.03242369 39.02216973 -8.03451043 37.5379234 -10 35 C-12.97698748 32.89631973 -12.97698748 32.89631973 -16.375 31.0625 C-21.95939837 27.82416431 -26.05414523 24.89170953 -29 19 C-29.54644038 14.01933027 -29.54204675 10.1041693 -27.3125 5.5625 C-19.98561744 -2.55647797 -10.00383475 -1.87571902 0 0 Z " fill="#808080" transform="translate(576,566)"/>
<path d="M0 0 C0.33 1.32 0.66 2.64 1 4 C1.825 3.34 2.65 2.68 3.5 2 C6.68647675 -0.09676183 9.24083292 -0.65028953 13.03515625 -0.4609375 C16.64506486 0.38591979 18.46370132 2.33997943 21 5 C21.99455909 7.98367726 22.19559632 10.2004192 22.31640625 13.32421875 C22.37924805 14.86625977 22.37924805 14.86625977 22.44335938 16.43945312 C22.48267578 17.51130859 22.52199219 18.58316406 22.5625 19.6875 C22.60568359 20.77095703 22.64886719 21.85441406 22.69335938 22.97070312 C22.79946838 25.64700791 22.90152361 28.32340526 23 31 C24.32 31.66 25.64 32.32 27 33 C27 34.32 27 35.64 27 37 C20.73 37 14.46 37 8 37 C8 35.68 8 34.36 8 33 C9.485 32.505 9.485 32.505 11 32 C11 24.08 11 16.16 11 8 C3.73786479 7.57836298 3.73786479 7.57836298 0 9 C0.08060591 12.62592996 0.19346817 16.25014402 0.3125 19.875 C0.33505859 20.90753906 0.35761719 21.94007813 0.38085938 23.00390625 C0.41630859 23.99003906 0.45175781 24.97617187 0.48828125 25.9921875 C0.51446533 26.90339355 0.54064941 27.81459961 0.56762695 28.75341797 C0.71031006 29.49479004 0.85299316 30.23616211 1 31 C1.99 31.66 2.98 32.32 4 33 C4 34.32 4 35.64 4 37 C-2.27 37 -8.54 37 -15 37 C-15 35.68 -15 34.36 -15 33 C-12.525 32.505 -12.525 32.505 -10 32 C-10 23.75 -10 15.5 -10 7 C-11.32 6.67 -12.64 6.34 -14 6 C-14 4.68 -14 3.36 -14 2 C-12.4176994 1.66179834 -10.83410625 1.32964061 -9.25 1 C-8.36828125 0.814375 -7.4865625 0.62875 -6.578125 0.4375 C-4 0 -4 0 0 0 Z " fill="#808080" transform="translate(796,582)"/>
<path d="M0 0 C0 1.32 0 2.64 0 4 C0.99 3.34 1.98 2.68 3 2 C7.2711593 -0.42090001 10.12907095 -0.62850697 15 0 C18.18128297 1.79811646 19.59901611 3.10637877 21.09375 6.4375 C22.35759829 11.40573121 22.46680564 16.26664056 22.625 21.375 C22.68300781 22.90833984 22.68300781 22.90833984 22.7421875 24.47265625 C22.83597964 26.98159597 22.92167879 29.49053764 23 32 C23.99 32.33 24.98 32.66 26 33 C26 34.32 26 35.64 26 37 C20.06 37 14.12 37 8 37 C8 35.68 8 34.36 8 33 C8.99 32.34 9.98 31.68 11 31 C11.4477373 28.92474348 11.4477373 28.92474348 11.36328125 26.53515625 C11.36231445 25.21161133 11.36231445 25.21161133 11.36132812 23.86132812 C11.34521484 22.93771484 11.32910156 22.01410156 11.3125 21.0625 C11.31572266 20.14275391 11.31894531 19.22300781 11.32226562 18.27539062 C11.38374193 12.82067663 11.38374193 12.82067663 9 8 C5.92078868 7.74339906 3.78863007 7.60568496 1 9 C1 16.59 1 24.18 1 32 C2.485 32.495 2.485 32.495 4 33 C4 34.32 4 35.64 4 37 C-2.27 37 -8.54 37 -15 37 C-15 35.68 -15 34.36 -15 33 C-13.68 32.34 -12.36 31.68 -11 31 C-10.9132018 27.20847666 -10.85967793 23.41720704 -10.8125 19.625 C-10.78736328 18.54476562 -10.76222656 17.46453125 -10.73632812 16.3515625 C-10.72666016 15.3203125 -10.71699219 14.2890625 -10.70703125 13.2265625 C-10.6913208 12.27346191 -10.67561035 11.32036133 -10.65942383 10.33837891 C-10.82800903 9.18088135 -10.82800903 9.18088135 -11 8 C-11.99 7.34 -12.98 6.68 -14 6 C-14 4.68 -14 3.36 -14 2 C-4.58997722 -0.29612756 -4.58997722 -0.29612756 0 0 Z " fill="#2B9E1B" transform="translate(211,582)"/>
<path d="M0 0 C-0.01571045 0.73114014 -0.0314209 1.46228027 -0.04760742 2.21557617 C-0.11010351 5.5394716 -0.14903752 8.8632432 -0.1875 12.1875 C-0.21263672 13.33798828 -0.23777344 14.48847656 -0.26367188 15.67382812 C-0.27333984 16.78564453 -0.28300781 17.89746094 -0.29296875 19.04296875 C-0.3086792 20.06414795 -0.32438965 21.08532715 -0.34057617 22.13745117 C0.05025747 25.4224149 1.1256904 27.30851735 3 30 C6.81813447 29.72459296 6.81813447 29.72459296 10 28 C10.08685603 26.43827255 10.10702219 24.87270656 10.09765625 23.30859375 C10.09282227 21.89223633 10.09282227 21.89223633 10.08789062 20.44726562 C10.07951172 19.45404297 10.07113281 18.46082031 10.0625 17.4375 C10.05798828 16.44041016 10.05347656 15.44332031 10.04882812 14.41601562 C10.03700007 11.94395151 10.02051849 9.47200482 10 7 C8.68 6.34 7.36 5.68 6 5 C6 3.68 6 2.36 6 1 C10.95 0.67 15.9 0.34 21 0 C21.33 9.9 21.66 19.8 22 30 C23.32 30.33 24.64 30.66 26 31 C26 32.32 26 33.64 26 35 C21.05 35.99 16.1 36.98 11 38 C10.67 36.68 10.34 35.36 10 34 C9.52691406 34.31195312 9.05382812 34.62390625 8.56640625 34.9453125 C4.56807378 37.29910666 1.83193757 38.39843219 -2.8125 37.5 C-5.49830075 36.70489203 -6.87175529 36.11221413 -9 34.25 C-11.60915618 28.3793986 -11.12082582 21.91521575 -11.0625 15.625 C-11.05798828 14.69816406 -11.05347656 13.77132812 -11.04882812 12.81640625 C-11.03711574 10.54420291 -11.02071372 8.27213612 -11 6 C-12.32 5.67 -13.64 5.34 -15 5 C-15 3.68 -15 2.36 -15 1 C-13.43784452 0.83013455 -11.8752548 0.66426036 -10.3125 0.5 C-9.44238281 0.4071875 -8.57226562 0.314375 -7.67578125 0.21875 C-5.10183975 0.00832559 -2.5808941 -0.01512612 0 0 Z " fill="#808080" transform="translate(663,582)"/>
<path d="M0 0 C-0.01571045 1.05127075 -0.01571045 1.05127075 -0.03173828 2.1237793 C-0.07341668 5.31164945 -0.09936385 8.49946215 -0.125 11.6875 C-0.14175781 12.79029297 -0.15851563 13.89308594 -0.17578125 15.02929688 C-0.18544922 16.6293457 -0.18544922 16.6293457 -0.1953125 18.26171875 C-0.20578613 19.24100342 -0.21625977 20.22028809 -0.22705078 21.22924805 C0.01774245 24.21651516 0.62269327 26.34241735 2 29 C4.40110217 30.08024658 4.40110217 30.08024658 7 30 C7.99 29.34 8.98 28.68 10 28 C10.50843062 25.68246412 10.50843062 25.68246412 10.51171875 22.9921875 C10.54716797 22.00605469 10.58261719 21.01992188 10.61914062 20.00390625 C10.64169922 18.97136719 10.66425781 17.93882812 10.6875 16.875 C10.72166016 15.83472656 10.75582031 14.79445313 10.79101562 13.72265625 C10.87367058 11.14854493 10.94276155 8.57478171 11 6 C8.525 5.505 8.525 5.505 6 5 C6 3.68 6 2.36 6 1 C10.95 0.67 15.9 0.34 21 0 C21.33 9.9 21.66 19.8 22 30 C23.32 30.33 24.64 30.66 26 31 C26 32.32 26 33.64 26 35 C21.05 35.99 16.1 36.98 11 38 C10.67 36.68 10.34 35.36 10 34 C9.484375 34.474375 8.96875 34.94875 8.4375 35.4375 C5.18300025 37.52371779 2.85984185 37.8691579 -1 38 C-5.09987275 36.92543658 -7.59198216 35.61202676 -10 32 C-10.31884766 29.27270508 -10.31884766 29.27270508 -10.4140625 26.01953125 C-10.45273437 24.85615234 -10.49140625 23.69277344 -10.53125 22.49414062 C-10.5621875 21.27919922 -10.593125 20.06425781 -10.625 18.8125 C-10.66367187 17.58595703 -10.70234375 16.35941406 -10.7421875 15.09570312 C-10.83656103 12.06395344 -10.92214549 9.03221159 -11 6 C-12.32 5.67 -13.64 5.34 -15 5 C-15 3.68 -15 2.36 -15 1 C-13.43784452 0.83013455 -11.8752548 0.66426036 -10.3125 0.5 C-9.44238281 0.4071875 -8.57226562 0.314375 -7.67578125 0.21875 C-5.10183975 0.00832559 -2.5808941 -0.01512612 0 0 Z " fill="#2B9E1B" transform="translate(342,582)"/>
<path d="M0 0 C4.88006234 2.62528299 8.1174457 6.04374335 9.86328125 11.28125 C10.81643807 25.01037424 10.81643807 25.01037424 6.86328125 30.28125 C2.50948603 34.53829422 -1.27481244 37.2300141 -7.4921875 37.3125 C-13.39157113 36.9555025 -17.37568879 35.80441217 -22.13671875 32.28125 C-26.92294955 26.10953133 -27.92949614 20.91456369 -27.13671875 13.28125 C-25.52475542 7.66851023 -22.64596331 4.36193406 -17.8203125 1.19140625 C-12.58954302 -1.63636472 -5.60833407 -1.88653285 0 0 Z M-13.38671875 5.53125 C-16.39446225 10.25770407 -16.69224146 14.72602293 -16.13671875 20.28125 C-14.54849413 27.09528295 -14.54849413 27.09528295 -10.13671875 32.28125 C-6.55338542 32.36458333 -6.55338542 32.36458333 -3.13671875 31.28125 C-0.45951349 27.77288624 -0.80485072 23.62847959 -0.82421875 19.40625 C-0.80810547 18.71144531 -0.79199219 18.01664063 -0.77539062 17.30078125 C-0.770905 12.53704384 -1.65300427 9.33012762 -4.13671875 5.28125 C-5.95772022 3.08204504 -5.95772022 3.08204504 -8.51171875 2.84375 C-11.34620668 3.05480929 -11.34620668 3.05480929 -13.38671875 5.53125 Z " fill="#808080" transform="translate(612.13671875,582.71875)"/>
<path d="M0 0 C4.60097058 2.61927913 8.17954603 5.91043528 9.6484375 11.125 C10.35118952 16.92270415 10.76412425 22.89004913 7.9609375 28.1875 C3.8330518 33.43103049 0.28140004 35.90895687 -6.3515625 37.125 C-12.67969429 37.22598083 -17.23953442 35.83372626 -22.3515625 32.125 C-27.12819009 25.96566443 -28.16474887 20.74862221 -27.3515625 13.125 C-25.6832708 7.8027868 -23.11147216 4.1434793 -18.3515625 1.125 C-12.49298398 -1.57820318 -6.14512752 -2.28655908 0 0 Z M-11.3515625 3.125 C-15.90460167 7.808126 -16.65855616 11.46469788 -16.57421875 17.8984375 C-16.11159826 22.52464244 -14.84069886 27.19589154 -11.9765625 30.90625 C-10.19546595 32.52365928 -10.19546595 32.52365928 -6.6640625 31.8125 C-5.5709375 31.585625 -4.4778125 31.35875 -3.3515625 31.125 C-0.26842053 24.61477991 -0.26618233 16.689544 -1.921875 9.7265625 C-3.24484192 6.42610819 -4.35383116 5.12348756 -7.3515625 3.125 C-8.6715625 3.125 -9.9915625 3.125 -11.3515625 3.125 Z " fill="#808080" transform="translate(767.3515625,582.875)"/>
<path d="M0 0 C4.71640919 2.12371145 7.17619361 4.67202523 9.64453125 9.3125 C11.61556566 15.22560323 11.64193631 21.94412325 9.08203125 27.6875 C6.24289548 32.5051276 2.72321564 35.49185731 -2.71484375 36.94140625 C-8.69201524 37.82313186 -14.01575824 37.24617494 -19.35546875 34.3125 C-23.24389466 30.9172403 -26.0671753 26.68924486 -26.69140625 21.54296875 C-26.77738224 14.84543923 -26.48937488 10.67540525 -22.35546875 5.3125 C-15.7614591 -0.78695893 -8.77285816 -2.56056888 0 0 Z M-12.54296875 5.125 C-16.7524714 10.20543423 -15.87050835 17.06580544 -15.35546875 23.3125 C-14.5660239 26.47503511 -13.65055216 28.95788993 -11.35546875 31.3125 C-7.7289321 32.45206727 -7.7289321 32.45206727 -4.35546875 32.3125 C0.13525813 27.40076747 0.18141471 23.04323308 -0.02734375 16.51953125 C-0.46772739 12.21530548 -1.3910386 9.16860364 -3.35546875 5.3125 C-7.0007417 2.88231803 -9.01932417 2.20540877 -12.54296875 5.125 Z " fill="#2B9E1B" transform="translate(181.35546875,582.6875)"/>
<path d="M0 0 C1.29315061 0.95632999 2.58446853 1.91513851 3.875 2.875 C4.59429687 3.40867187 5.31359375 3.94234375 6.0546875 4.4921875 C8 6 8 6 10 8 C10.27415466 10.95372009 10.27415466 10.95372009 10.30639648 14.78881836 C10.31472 15.48654861 10.32304352 16.18427887 10.33161926 16.90315247 C10.35576474 19.21543922 10.36449633 21.52744421 10.37109375 23.83984375 C10.38005602 25.44405708 10.38917779 27.04826953 10.39845276 28.65248108 C10.41495723 32.01760899 10.42264561 35.38263723 10.42553711 38.74780273 C10.43092526 43.06371032 10.46861562 47.37868382 10.51428127 51.69432735 C10.54399631 55.00830014 10.55125942 58.32204637 10.55226326 61.63614082 C10.55647601 63.22741542 10.56895256 64.81869005 10.58978081 66.40983391 C10.61658554 68.63452092 10.61190539 70.85702208 10.59936523 73.08178711 C10.60443588 74.34816513 10.60950653 75.61454315 10.61473083 76.91929626 C10 80 10 80 7.46253967 81.93238831 C6.64990158 82.28470016 5.83726349 82.63701202 5 83 C2.53547668 81.48162842 2.53547668 81.48162842 0 79 C-0.47969463 76.22352917 -0.63637241 74.06392497 -0.56762695 71.29394531 C-0.56835709 70.52282913 -0.56908722 69.75171295 -0.56983948 68.95722961 C-0.56636149 66.41347415 -0.52749336 63.87155971 -0.48828125 61.328125 C-0.4789538 59.56265259 -0.47183737 57.79716723 -0.46684265 56.03167725 C-0.44776731 51.38873456 -0.39866223 46.74657607 -0.34332275 42.10394287 C-0.29214163 37.36497608 -0.26933106 32.62588236 -0.24414062 27.88671875 C-0.19054375 18.5908016 -0.10522467 9.29546605 0 0 Z " fill="#A03741" transform="translate(234,397)"/>
<path d="M0 0 C3.20622337 1.63249662 5.24997546 3.97723926 7.375 6.875 C8.27594143 9.93820087 8.12190046 12.83058809 8 16 C3.57317509 17.0390378 -0.78934632 17.31592951 -5.3125 17.5625 C-6.05306641 17.60568359 -6.79363281 17.64886719 -7.55664062 17.69335938 C-9.37091464 17.79870432 -11.1854355 17.89978316 -13 18 C-11.78559173 23.84211227 -11.78559173 23.84211227 -8 28 C-2.54075258 29.44206536 0.17927627 28.80274636 5 26 C5.66 26 6.32 26 7 26 C7.33 27.32 7.66 28.64 8 30 C3.35085537 34.37404732 -0.46375911 37.79191556 -7.12890625 38.09765625 C-12.54954493 37.86835681 -15.62590851 36.31328981 -19.58984375 32.66796875 C-23.62458416 27.89557497 -23.42121435 23.32644974 -23.3125 17.265625 C-22.72992326 11.17769807 -20.50112944 7.07985958 -15.9375 3.0625 C-10.91469563 -0.46414988 -5.98385515 -0.8375536 0 0 Z M-10.125 5.6875 C-12.16972964 8.20933322 -12.64598897 9.81390075 -13 13 C-9.7 13 -6.4 13 -3 13 C-2.22197813 10.6984589 -2.22197813 10.6984589 -2 8 C-3.1272922 5.63517472 -3.1272922 5.63517472 -5 4 C-8.06070069 3.68905893 -8.06070069 3.68905893 -10.125 5.6875 Z " fill="#2B9E1B" transform="translate(515,582)"/>
<path d="M0 0 C0 17.16 0 34.32 0 52 C1.65 52.33 3.3 52.66 5 53 C5 54.32 5 55.64 5 57 C-1.6 57 -8.2 57 -15 57 C-15 55.68 -15 54.36 -15 53 C-13.68 52.34 -12.36 51.68 -11 51 C-11 36.81 -11 22.62 -11 8 C-12.32 7.34 -13.64 6.68 -15 6 C-15 4.68 -15 3.36 -15 2 C-13.2508503 1.66223316 -11.50063855 1.32996329 -9.75 1 C-8.77546875 0.814375 -7.8009375 0.62875 -6.796875 0.4375 C-4 0 -4 0 0 0 Z " fill="#808080" transform="translate(641,562)"/>
<path d="M0 0 C1.04285156 -0.00515625 2.08570313 -0.0103125 3.16015625 -0.015625 C5.9375 0.25 5.9375 0.25 8.9375 2.25 C9.44921875 4.4140625 9.44921875 4.4140625 9.625 6.875 C9.72361328 8.10089844 9.72361328 8.10089844 9.82421875 9.3515625 C9.86160156 9.97804688 9.89898438 10.60453125 9.9375 11.25 C8.6175 11.58 7.2975 11.91 5.9375 12.25 C5.298125 11.280625 4.65875 10.31125 4 9.3125 C2.2409741 6.48963731 2.2409741 6.48963731 0.9375 5.25 C-0.72867115 5.20936168 -2.39638095 5.207279 -4.0625 5.25 C-4.3925 7.23 -4.7225 9.21 -5.0625 11.25 C-4.4025 11.476875 -3.7425 11.70375 -3.0625 11.9375 C1.99190887 14.14880388 8.54637851 17.01942174 10.9375 22.25 C11.43814956 26.75584605 11.5656003 29.07231194 9.4375 33.0625 C5.43747822 36.56251906 1.66248326 38.22174091 -3.69921875 38.27734375 C-7.94681105 37.93629619 -10.45637062 37.65408625 -14.0625 35.25 C-14.57421875 32.8671875 -14.57421875 32.8671875 -14.75 30.125 C-14.81574219 29.21492187 -14.88148438 28.30484375 -14.94921875 27.3671875 C-14.98660156 26.66851563 -15.02398438 25.96984375 -15.0625 25.25 C-13.7425 24.92 -12.4225 24.59 -11.0625 24.25 C-10.78277344 24.8275 -10.50304687 25.405 -10.21484375 26 C-8.97129949 28.30315593 -7.80059812 30.28818628 -6.0625 32.25 C-2.34993547 32.91923762 -2.34993547 32.91923762 0.9375 32.25 C1.60904684 29.96658257 1.60904684 29.96658257 0.9375 27.25 C-1.52612928 25.25825991 -4.31186756 23.81050243 -7.0625 22.25 C-10.11582312 20.40107939 -12.57410691 18.65772126 -13.79296875 15.14453125 C-14.50999319 10.9062779 -14.30109057 8.73601784 -12.375 4.8125 C-8.5397401 0.56261741 -5.6644499 -0.02807658 0 0 Z " fill="#808080" transform="translate(841.0625,581.75)"/>
<path d="M0 0 C1.05445313 0.00644531 2.10890625 0.01289062 3.1953125 0.01953125 C5.875 0.1875 5.875 0.1875 7.875 1.1875 C9.0327506 4.66075181 8.94366652 7.54817448 8.875 11.1875 C7.555 11.1875 6.235 11.1875 4.875 11.1875 C4.235625 10.1975 3.59625 9.2075 2.9375 8.1875 C2.256875 7.1975 1.57625 6.2075 0.875 5.1875 C-1.7954053 4.68508678 -1.7954053 4.68508678 -4.125 5.1875 C-4.455 6.8375 -4.785 8.4875 -5.125 10.1875 C-3.76955078 10.94933594 -3.76955078 10.94933594 -2.38671875 11.7265625 C-1.19483055 12.42104854 -0.00345077 13.11640763 1.1875 13.8125 C1.78240234 14.14378906 2.37730469 14.47507812 2.99023438 14.81640625 C7.22108758 17.3218277 9.18505096 19.58132121 10.875 24.1875 C10.875 28.39257782 10.32530247 30.53383512 7.9375 34 C3.12059826 37.4406441 -1.87627948 38.59478797 -7.7734375 37.85546875 C-9.92737375 37.38323351 -12.02187451 36.84790172 -14.125 36.1875 C-15.10748524 32.1347484 -15.20659574 28.34888263 -15.125 24.1875 C-13.375 24.3125 -13.375 24.3125 -11.125 25.1875 C-8.9375 28.1875 -8.9375 28.1875 -7.125 31.1875 C-5.15677114 33.15572886 -1.77691291 32.84998381 0.875 33.1875 C0.99156891 30.27327723 1.04490305 28.79486241 -0.125 26.1875 C-2.4981106 24.35706079 -4.91705247 23.01048049 -7.58203125 21.64453125 C-10.30730884 20.08304348 -12.14473474 18.62544671 -14.125 16.1875 C-15.20048846 11.76692612 -14.6861407 8.12941474 -12.375 4.25 C-8.34114135 0.55229623 -5.45796142 -0.07375624 0 0 Z " fill="#2B9E1B" transform="translate(256.125,581.8125)"/>
<path d="M0 0 C6.6 0 13.2 0 20 0 C19.67 1.32 19.34 2.64 19 4 C18.01 4 17.02 4 16 4 C19.465 12.415 19.465 12.415 23 21 C23.825 18.73125 24.65 16.4625 25.5 14.125 C25.76103516 13.41230957 26.02207031 12.69961914 26.29101562 11.96533203 C27.57161797 8.56902012 27.57161797 8.56902012 28 5 C26.68 4.34 25.36 3.68 24 3 C24 2.01 24 1.02 24 0 C29.28 0 34.56 0 40 0 C39.67 1.32 39.34 2.64 39 4 C38.01 4.33 37.02 4.66 36 5 C34.59488212 7.71736016 33.36548613 10.37323177 32.1875 13.1875 C31.84074219 13.9923584 31.49398438 14.7972168 31.13671875 15.62646484 C30.08164976 18.08037301 29.04065563 20.53995181 28 23 C27.38280481 24.43675465 26.76439778 25.87298959 26.14453125 27.30859375 C24.75282797 30.53476026 23.37275143 33.76571444 22 37 C20.68 37 19.36 37 18 37 C17.63237549 36.07662842 17.26475098 35.15325684 16.88598633 34.2019043 C15.5138156 30.76792558 14.12038156 27.34291424 12.72045898 23.92016602 C12.11829302 22.43944331 11.5218687 20.95637183 10.93139648 19.47094727 C10.08005732 17.33221717 9.20821118 15.2028725 8.33203125 13.07421875 C8.07347855 12.41161545 7.81492584 11.74901215 7.54853821 11.06632996 C5.75130463 6.77595842 4.02278744 5.18602735 0 3 C0 2.01 0 1.02 0 0 Z " fill="#2B9E1B" transform="translate(451,583)"/>
<path d="M0 0 C0 4.29 0 8.58 0 13 C2.64 13 5.28 13 8 13 C8 14.32 8 15.64 8 17 C5.36 17 2.72 17 0 17 C0.13814223 20.9794733 0.28679674 24.95848415 0.4375 28.9375 C0.47681641 30.07380859 0.51613281 31.21011719 0.55664062 32.38085938 C0.59853516 33.46044922 0.64042969 34.54003906 0.68359375 35.65234375 C0.72025146 36.65257568 0.75690918 37.65280762 0.79467773 38.68334961 C0.74671841 40.96069188 0.74671841 40.96069188 2 42 C3.99958364 42.04080783 6.00045254 42.04254356 8 42 C8.33 43.32 8.66 44.64 9 46 C4.9954357 48.42354151 2.00525169 49.98324581 -2.75 50.0625 C-6.7367045 48.7591543 -7.75268762 47.49598662 -10 44 C-10.45410156 40.95385742 -10.45410156 40.95385742 -10.390625 37.60546875 C-10.37773437 36.40341797 -10.36484375 35.20136719 -10.3515625 33.96289062 C-10.31804687 32.71701172 -10.28453125 31.47113281 -10.25 30.1875 C-10.23195313 28.92228516 -10.21390625 27.65707031 -10.1953125 26.35351562 C-10.14823916 23.23490665 -10.08249094 20.11784027 -10 17 C-11.98 17 -13.96 17 -16 17 C-15.34 15.68 -14.68 14.36 -14 13 C-12.68 13 -11.36 13 -10 13 C-10.144375 11.96875 -10.28875 10.9375 -10.4375 9.875 C-9.8914995 5.03899555 -8.467557 3.99177008 -4.82421875 1.06640625 C-3 0 -3 0 0 0 Z " fill="#2B9E1B" transform="translate(284,570)"/>
<path d="M0 0 C0.33 1.32 0.66 2.64 1 4 C1.70125 3.34 2.4025 2.68 3.125 2 C6.45829619 -0.31881474 8.02642355 -0.52981019 12 0 C14 2 14 2 14.3125 4.9375 C14 8 14 8 11 11 C7.7 10.67 4.4 10.34 1 10 C0.67 17.26 0.34 24.52 0 32 C1.98 32.33 3.96 32.66 6 33 C6 34.32 6 35.64 6 37 C-0.93 37 -7.86 37 -15 37 C-15 35.68 -15 34.36 -15 33 C-13.68 32.34 -12.36 31.68 -11 31 C-10.97106068 27.37501666 -10.95322208 23.75006287 -10.9375 20.125 C-10.92912109 19.09246094 -10.92074219 18.05992187 -10.91210938 16.99609375 C-10.90888672 16.00996094 -10.90566406 15.02382813 -10.90234375 14.0078125 C-10.89710693 13.09660645 -10.89187012 12.18540039 -10.88647461 11.24658203 C-10.85114435 8.96312491 -10.85114435 8.96312491 -12 7 C-12.99 6.67 -13.98 6.34 -15 6 C-14.67 4.68 -14.34 3.36 -14 2 C-4.58997722 -0.29612756 -4.58997722 -0.29612756 0 0 Z " fill="#2B9E1B" transform="translate(310,582)"/>
<path d="M0 0 C0 4.29 0 8.58 0 13 C2.97 13 5.94 13 9 13 C8.67 14.32 8.34 15.64 8 17 C5.36 17 2.72 17 0 17 C0.1391669 20.41697238 0.28749585 23.83348757 0.4375 27.25 C0.47681641 28.21808594 0.51613281 29.18617188 0.55664062 30.18359375 C0.61948242 31.58544922 0.61948242 31.58544922 0.68359375 33.015625 C0.72025146 33.87446289 0.75690918 34.73330078 0.79467773 35.61816406 C0.98703514 37.84960143 1.38846244 39.84982524 2 42 C4.31 42 6.62 42 9 42 C8.9375 44.3125 8.9375 44.3125 8 47 C4.43737759 49.09566024 1.95833254 50.01879083 -2.1875 49.9375 C-5.49502013 48.83499329 -6.91300372 47.7826617 -9 45 C-9.92606661 41.45303288 -10.11807655 38.13570247 -10.09765625 34.48046875 C-10.09443359 33.45888672 -10.09121094 32.43730469 -10.08789062 31.38476562 C-10.07951172 30.32966797 -10.07113281 29.27457031 -10.0625 28.1875 C-10.05798828 27.11306641 -10.05347656 26.03863281 -10.04882812 24.93164062 C-10.03707729 22.28770317 -10.02064787 19.64388048 -10 17 C-11.65 17 -13.3 17 -15 17 C-14.67 15.68 -14.34 14.36 -14 13 C-12.68 13 -11.36 13 -10 13 C-10.165 11.96875 -10.33 10.9375 -10.5 9.875 C-10 6 -10 6 -8.2890625 4.19921875 C-2.73687351 0 -2.73687351 0 0 0 Z " fill="#2B9E1B" transform="translate(420,570)"/>
<path d="M0 0 C2.29296875 1.52734375 2.29296875 1.52734375 4 3 C3.67 4.98 3.34 6.96 3 9 C0 10 0 10 -1.8671875 9.1875 C-2.52976562 8.795625 -3.19234375 8.40375 -3.875 8 C-6.45813166 6.64918803 -7.8619741 6.00920173 -10.8125 5.8125 C-13.5450042 7.29585942 -14.51596953 8.99719074 -15.5546875 11.8984375 C-16.37319419 15.76121467 -16.14439193 19.22774512 -15 23 C-12.40609579 26.66198241 -10.81138204 27.76817656 -6.5 29 C-2.60125958 29 -1.1146284 28.22473457 2 26 C2.66 26 3.32 26 4 26 C4.33 27.32 4.66 28.64 5 30 C-3.43480216 37.93570144 -3.43480216 37.93570144 -9.94140625 38.02734375 C-14.88954205 37.66116292 -18.14186214 36.2443432 -22 33 C-25.60598497 28.71180166 -27.25553835 24.61162213 -27 19 C-25.83787018 12.94252685 -23.55228123 8.25539333 -19 4 C-13.18130308 0.30138275 -6.85311062 -1.31380877 0 0 Z " fill="#2B9E1B" transform="translate(398,582)"/>
<path d="M0 0 C0.02698189 1.62490954 0.04638757 3.24994633 0.0625 4.875 C0.07410156 5.77992188 0.08570313 6.68484375 0.09765625 7.6171875 C0 10 0 10 -1 12 C1.97 12 4.94 12 8 12 C8 13.32 8 14.64 8 16 C5.03 16 2.06 16 -1 16 C-0.88582748 19.22988054 -0.75907878 22.45843595 -0.625 25.6875 C-0.5940625 26.59951172 -0.563125 27.51152344 -0.53125 28.45117188 C-0.33223046 33.01203631 -0.14309878 36.86190275 2 41 C3.98 41 5.96 41 8 41 C8.33 42.32 8.66 43.64 9 45 C1.27467811 49 1.27467811 49 -3.3125 49 C-6.52821302 47.80345562 -7.87112624 46.688809 -10 44 C-10.45410156 40.97558594 -10.45410156 40.97558594 -10.390625 37.484375 C-10.37773438 36.23398437 -10.36484375 34.98359375 -10.3515625 33.6953125 C-10.31804688 32.39335938 -10.28453125 31.09140625 -10.25 29.75 C-10.23195313 28.43257812 -10.21390625 27.11515625 -10.1953125 25.7578125 C-10.14816271 22.50447692 -10.08236044 19.25260375 -10 16 C-11.98 16 -13.96 16 -16 16 C-15.34 14.68 -14.68 13.36 -14 12 C-12.68 12 -11.36 12 -10 12 C-10.144375 10.783125 -10.28875 9.56625 -10.4375 8.3125 C-10.4570312 5.56836645 -10.36325045 4.41988628 -8.546875 2.3203125 C-3.74731795 -1.24910598 -3.74731795 -1.24910598 0 0 Z " fill="#808080" transform="translate(706,571)"/>
<path d="M0 0 C0.33 10.56 0.66 21.12 1 32 C2.32 32.33 3.64 32.66 5 33 C5 34.32 5 35.64 5 37 C-1.6 37 -8.2 37 -15 37 C-15 35.68 -15 34.36 -15 33 C-13.515 32.505 -13.515 32.505 -12 32 C-10.78554409 29.57108818 -10.87075802 27.99280557 -10.8671875 25.28125 C-10.86589844 24.34925781 -10.86460937 23.41726563 -10.86328125 22.45703125 C-10.86714844 21.48121094 -10.87101563 20.50539063 -10.875 19.5 C-10.87113281 18.52417969 -10.86726562 17.54835938 -10.86328125 16.54296875 C-10.86521484 15.14498047 -10.86521484 15.14498047 -10.8671875 13.71875 C-10.86887939 12.43387695 -10.86887939 12.43387695 -10.87060547 11.12304688 C-10.86413554 8.94508466 -10.86413554 8.94508466 -12 7 C-12.99 6.67 -13.98 6.34 -15 6 C-14.67 4.68 -14.34 3.36 -14 2 C-12.60582227 1.65980848 -11.20955342 1.32818221 -9.8125 1 C-8.64654297 0.7215625 -8.64654297 0.7215625 -7.45703125 0.4375 C-5 0 -5 0 0 0 Z " fill="#808080" transform="translate(732,582)"/>
<path d="M0 0 C0.02505615 0.89831543 0.0501123 1.79663086 0.07592773 2.72216797 C0.17098693 6.05074869 0.27022421 9.37914994 0.37231445 12.70751953 C0.41566231 14.1488762 0.45733752 15.59028418 0.49731445 17.03173828 C0.55502088 19.10204541 0.61871371 21.17209432 0.68359375 23.2421875 C0.72025146 24.4885498 0.75690918 25.73491211 0.79467773 27.01904297 C0.80289479 29.92636942 0.80289479 29.92636942 2 32 C4.02463255 32.65213292 4.02463255 32.65213292 6 33 C6 34.32 6 35.64 6 37 C-0.93 37 -7.86 37 -15 37 C-15 35.68 -15 34.36 -15 33 C-13.02 32.505 -13.02 32.505 -11 32 C-9.92596168 27.64417794 -9.85047837 23.39634885 -9.875 18.9375 C-9.87113281 18.23044922 -9.86726563 17.52339844 -9.86328125 16.79492188 C-9.76188981 11.77972316 -9.76188981 11.77972316 -11 7 C-11.99 6.67 -12.98 6.34 -14 6 C-13.67 4.68 -13.34 3.36 -13 2 C-11.58461283 1.66127487 -10.16762037 1.32925376 -8.75 1 C-7.56664062 0.7215625 -7.56664062 0.7215625 -6.359375 0.4375 C-4 0 -4 0 0 0 Z " fill="#2B9E1B" transform="translate(446,582)"/>
<path d="M0 0 C4.12344314 3.5367744 7.84212386 7.57897341 11 12 C11 12.66 11 13.32 11 14 C9.6293189 14.51172094 8.25315925 15.00877492 6.875 15.5 C6.10929687 15.7784375 5.34359375 16.056875 4.5546875 16.34375 C1.4659299 17.13719232 -0.82055891 17.39333292 -4 17 C-6.7734375 15.03125 -6.7734375 15.03125 -9.375 12.5 C-10.24898437 11.6646875 -11.12296875 10.829375 -12.0234375 9.96875 C-13.00183594 8.99421875 -13.00183594 8.99421875 -14 8 C-13.67 7.01 -13.34 6.02 -13 5 C-13.763125 4.7525 -14.52625 4.505 -15.3125 4.25 C-18.2364045 2.89004442 -19.30004356 1.68414174 -21 -1 C-15.09614533 -6.90385467 -6.16074527 -4.14758835 0 0 Z " fill="#2B9D1B" transform="translate(235,364)"/>
<path d="M0 0 C0.66 0.33 1.32 0.66 2 1 C3.31628192 8.38305496 4.20744096 15.54859054 0 22 C-2.4375 24.4375 -2.4375 24.4375 -5 26 C-6.32 26 -7.64 26 -9 26 C-9 23.69 -9 21.38 -9 19 C-9.99 20.32 -10.98 21.64 -12 23 C-12.99 22.67 -13.98 22.34 -15 22 C-15.58003442 12.1394148 -15.58003442 12.1394148 -12 8 C-8.32457473 4.87861973 -4.49599105 1.83030951 0 0 Z " fill="#2B9E1B" transform="translate(219,292)"/>
<path d="M0 0 C0.70189453 0.00451172 1.40378906 0.00902344 2.12695312 0.01367188 C3.85550538 0.02543073 5.58401365 0.04336546 7.3125 0.0625 C5.15036578 6.99317682 2.00142392 14.49507391 -4.6875 18.0625 C-8.0494739 18.37283605 -11.32270431 18.29770902 -14.6875 18.0625 C-14.11405063 15.19525314 -13.8260485 14.2010485 -11.6875 12.0625 C-13.6675 12.0625 -15.6475 12.0625 -17.6875 12.0625 C-17.55047357 9.11643171 -17.38874445 6.86090482 -15.390625 4.5859375 C-10.31785114 0.29165864 -6.38529688 -0.07750594 0 0 Z " fill="#2B9E1B" transform="translate(224.6875,337.9375)"/>
<path d="M0 0 C3 1 3 1 4.6875 4.375 C6.42007884 9.52641089 6.8924827 14.62872799 6 20 C4.13114596 23.66610448 1.96165637 25.67944788 -2 27 C-2 24.36 -2 21.72 -2 19 C-2.66 19 -3.32 19 -4 19 C-4.33 20.32 -4.66 21.64 -5 23 C-7.73718336 21.9963661 -8.83441815 21.27095212 -10.375 18.75 C-11.22941576 14.99057064 -10.70467471 13.47753641 -9 10 C-6.228247 6.44391402 -3.18578221 3.18578221 0 0 Z " fill="#2B9E1B" transform="translate(196,319)"/>
<path d="M0 0 C0.33 0.66 0.66 1.32 1 2 C-0.61014096 6.5637124 -3.02820869 11.16300621 -7 14 C-10.625 14.875 -10.625 14.875 -14 15 C-14.66 14.34 -15.32 13.68 -16 13 C-15.67 12.01 -15.34 11.02 -15 10 C-15.99 10 -16.98 10 -18 10 C-17.70902736 6.50832834 -17.24460417 5.23799325 -14.6875 2.75 C-9.79867592 -0.43342033 -5.70666884 -0.09511115 0 0 Z " fill="#2B9E1B" transform="translate(260,327)"/>
<path d="M0 0 C2.75 2.3125 2.75 2.3125 5 5 C5.8971875 6.051875 5.8971875 6.051875 6.8125 7.125 C8 9 8 9 8 12 C2.63432676 13.50871538 -2.71483628 13.92378959 -7.9375 11.8125 C-10.32087126 9.71802222 -11.10368306 8.01488424 -12 5 C-10.35 4.67 -8.7 4.34 -7 4 C-7.66 3.67 -8.32 3.34 -9 3 C-9 2.01 -9 1.02 -9 0 C-5.77509551 -1.61245225 -3.43772273 -0.81573082 0 0 Z " fill="#2B9E1B" transform="translate(260,369)"/>
<path d="M0 0 C3.23156952 1.71318137 6.11609195 3.75696041 9 6 C8 9 8 9 5.375 10.625 C0.25842083 12.70953226 -3.22171443 13.74364669 -8.4375 11.5625 C-9.283125 11.046875 -10.12875 10.53125 -11 10 C-11 9.01 -11 8.02 -11 7 C-10.01 6.67 -9.02 6.34 -8 6 C-8.99 5.34 -9.98 4.68 -11 4 C-10.67 3.01 -10.34 2.02 -10 1 C-6.71400111 -0.64299944 -3.5360121 -0.6641241 0 0 Z " fill="#2B9E1B" transform="translate(248,347)"/>
<path d="M0 0 C1.63001953 0.01353516 1.63001953 0.01353516 3.29296875 0.02734375 C4.12441406 0.03894531 4.95585937 0.05054688 5.8125 0.0625 C1.8988061 11.51934695 1.8988061 11.51934695 -3.1875 14.0625 C-5.94700272 14.36054685 -8.39617008 14.25174271 -11.1875 14.0625 C-10.5275 12.7425 -9.8675 11.4225 -9.1875 10.0625 C-10.5075 9.7325 -11.8275 9.4025 -13.1875 9.0625 C-12.6922783 5.39785945 -12.1666794 3.35417646 -9.1875 1.0625 C-5.90230525 -0.03256492 -3.45086585 -0.03710608 0 0 Z " fill="#2B9E1B" transform="translate(236.1875,318.9375)"/>
<path d="M0 0 C4.08963009 1.81761337 7.66142007 4.15148485 10.3125 7.8125 C11.47900552 11.52410847 11.76257671 15.47484659 10 19 C8.68 18.34 7.36 17.68 6 17 C5.67 17.99 5.34 18.98 5 20 C2.50289018 19.65557106 1.17845335 19.15296001 -0.75 17.5 C-3.18323131 12.63353737 -2.43293379 7.54232663 -1 2.4375 C-0.67 1.633125 -0.34 0.82875 0 0 Z " fill="#2B9E1B" transform="translate(189,294)"/>
<path d="M0 0 C0.34507507 5.52120111 -0.22889279 10.11757301 -3 15 C-6.3464863 17.74583491 -7.5933055 18 -12 18 C-11.67 16.35 -11.34 14.7 -11 13 C-12.32 13.33 -13.64 13.66 -15 14 C-15.45552895 10.08245101 -15.38059386 8.49592533 -12.9375 5.3125 C-8.94206911 2.16716079 -5.22415366 0 0 0 Z " fill="#2B9E1B" transform="translate(220,320)"/>
<path d="M0 0 C4.42910291 1.17240959 6.99474883 3.4650216 9.83984375 6.9140625 C11.83203065 10.4959743 11.4861027 14.03016126 11 18 C9.68 18 8.36 18 7 18 C6.67 17.34 6.34 16.68 6 16 C5.67 17.32 5.34 18.64 5 20 C0.36732838 18.53705107 0.36732838 18.53705107 -1.18359375 16.26953125 C-2.20494445 13.43027404 -2.02499442 11.42615544 -1.6875 8.4375 C-1.58824219 7.48746094 -1.48898438 6.53742188 -1.38671875 5.55859375 C-1 3 -1 3 0 0 Z " fill="#2B9E1B" transform="translate(177,307)"/>
<path d="M0 0 C7.05508262 -0.67191263 10.57269828 0.40529417 16.34765625 4.4921875 C17.16556641 5.23855469 17.16556641 5.23855469 18 6 C18 6.66 18 7.32 18 8 C12.24371687 11.34911019 7.70738303 13.12009343 1 12 C-1.5625 10.625 -1.5625 10.625 -3 9 C-3 8.34 -3 7.68 -3 7 C-2.01 6.34 -1.02 5.68 0 5 C-0.66 4.67 -1.32 4.34 -2 4 C-1.34 2.68 -0.68 1.36 0 0 Z " fill="#2B9E1B" transform="translate(263,348)"/>
<path d="M0 0 C0.14505175 3.43705705 0.23398014 6.87333033 0.3125 10.3125 C0.3753418 11.77719727 0.3753418 11.77719727 0.43945312 13.27148438 C0.48518927 15.9333282 0.46787585 18.37862917 0 21 C-2.26953125 23.29296875 -2.26953125 23.29296875 -5 24 C-7.3125 23.1875 -7.3125 23.1875 -9 22 C-10.22361989 9.89975885 -10.22361989 9.89975885 -7.25390625 5.2890625 C-1.89801444 0 -1.89801444 0 0 0 Z " fill="#A0343D" transform="translate(35,397)"/>
<path d="M0 0 C4.08963009 1.81761337 7.66142007 4.15148485 10.3125 7.8125 C11.47900552 11.52410847 11.76257671 15.47484659 10 19 C4.93963178 17.67466547 1.43028089 16.0159386 -2 12 C-2.31429158 7.84218425 -1.87607983 3.75215966 0 0 Z " fill="#2B9D1B" transform="translate(155,297)"/>
<path d="M0 0 C1.64865674 2.72386766 2.19485927 4.1231333 1.5 7.25 C0 9 0 9 -2.875 10 C-6 10 -6 10 -8.4375 8.4375 C-10 6 -10 6 -10 2.875 C-9 0 -9 0 -7.25 -1.5 C-4.1231333 -2.19485927 -2.72386766 -1.64865674 0 0 Z " fill="#2B9E1B" transform="translate(445,567)"/>
<path d="M0 0 C2.375 1.4375 2.375 1.4375 3.4375 4.3125 C3.375 7.4375 3.375 7.4375 1.8125 9.875 C-0.625 11.4375 -0.625 11.4375 -3.875 11.1875 C-5.23625 10.81625 -5.23625 10.81625 -6.625 10.4375 C-7.8125 7.6875 -7.8125 7.6875 -8.625 4.4375 C-6.62476237 0.54230041 -4.44222737 -0.95190587 0 0 Z " fill="#808080" transform="translate(728.625,565.5625)"/>
<path d="M0 0 C2 2 2 2 2.4375 4.4375 C2 7 2 7 -0.25 8.9375 C-3 10 -3 10 -5.25 9.5 C-7 8 -7 8 -7.9375 5.5625 C-8 3 -8 3 -6.875 1.1875 C-4.40774618 -0.37509409 -2.87012296 -0.36796448 0 0 Z " fill="#A03741" transform="translate(242,488)"/>
<path d="M0 0 C3.125 0.375 3.125 0.375 6 1 C6.33 2.98 6.66 4.96 7 7 C4.75 8.625 4.75 8.625 2 10 C-0.3125 9.1875 -0.3125 9.1875 -2 8 C-2.125 5.125 -2.125 5.125 -2 2 C-1.34 1.34 -0.68 0.68 0 0 Z " fill="#A13640" transform="translate(28,429)"/>
<path d="M0 0 C3.13871412 0.07473129 5.29269762 0.38212666 7.69921875 2.484375 C10.41691304 5.56398984 12.23069686 7.9000668 13 12 C8.00442085 8.95391515 3.88974512 5.38459435 0 1 C0 0.67 0 0.34 0 0 Z " fill="#2E971E" transform="translate(237,386)"/>
</svg>
